<svg width="387" height="387" viewBox="0 0 387 387" fill="none" xmlns="http://www.w3.org/2000/svg">
<path d="M245.1 51.6V68.9266L257.352 56.6748C277.503 36.5238 310.174 36.5238 330.325 56.6748C350.476 76.8259 350.476 109.497 330.325 129.648L318.073 141.9H335.4C363.898 141.9 387 165.002 387 193.5C387 221.998 363.898 245.1 335.4 245.1H318.073L330.325 257.352C350.476 277.503 350.476 310.174 330.325 330.325C310.174 350.476 277.503 350.476 257.352 330.325L245.1 318.073V335.4C245.1 363.898 221.998 387 193.5 387C165.002 387 141.9 363.898 141.9 335.4V318.073L129.648 330.325C109.497 350.476 76.8259 350.476 56.6748 330.325C36.5238 310.174 36.5238 277.503 56.6749 257.352L68.9266 245.1H51.6C23.1021 245.1 0 221.998 0 193.5C0 165.002 23.1021 141.9 51.6 141.9H68.9267L56.6749 129.648C36.5239 109.497 36.5239 76.8259 56.6749 56.6748C76.826 36.5238 109.497 36.5238 129.648 56.6748L141.9 68.9265V51.6C141.9 23.1021 165.002 -2.54603e-06 193.5 0C221.998 0 245.1 23.1021 245.1 51.6Z" fill="#FF01E5"/>
<path d="M127.584 212L140.116 172.559H146.27L158.746 212H153.319L143.361 178.657H143.025L133.011 212H127.584ZM135.081 201.594V197.007H151.305V201.594H135.081ZM177.689 212.839C174.482 212.839 171.722 212.037 169.41 210.434C167.097 208.792 165.307 206.443 164.039 203.384C162.808 200.326 162.193 196.634 162.193 192.307C162.193 187.981 162.808 184.289 164.039 181.23C165.307 178.135 167.097 175.785 169.41 174.181C171.722 172.54 174.482 171.72 177.689 171.72C181.68 171.72 184.869 173.006 187.256 175.58C189.643 178.153 191.042 181.846 191.452 186.657L186.305 187.384C185.969 183.692 185.093 180.969 183.676 179.216C182.258 177.426 180.244 176.531 177.633 176.531C174.538 176.531 172.114 177.892 170.361 180.615C168.608 183.337 167.731 187.235 167.731 192.307C167.731 197.342 168.608 201.221 170.361 203.944C172.114 206.667 174.538 208.028 177.633 208.028C180.244 208.028 182.258 207.151 183.676 205.398C185.13 203.646 186.025 200.923 186.361 197.23L191.452 198.07C191.004 202.844 189.587 206.499 187.2 209.035C184.85 211.571 181.68 212.839 177.689 212.839ZM211.235 212.839C206.759 212.839 203.253 211.664 200.717 209.315C198.218 206.965 196.708 203.664 196.185 199.412L201.444 198.741C201.817 201.837 202.806 204.186 204.409 205.79C206.013 207.394 208.307 208.196 211.291 208.196C213.678 208.196 215.524 207.562 216.829 206.294C218.172 204.988 218.843 203.217 218.843 200.979C218.843 199.338 218.414 198.088 217.556 197.23C216.736 196.335 215.3 195.645 213.249 195.161L206.479 193.482C200.4 192.028 197.36 188.615 197.36 183.244C197.36 180.932 197.901 178.918 198.983 177.202C200.064 175.449 201.575 174.107 203.514 173.174C205.454 172.204 207.71 171.72 210.284 171.72C214.274 171.72 217.463 172.82 219.85 175.02C222.237 177.221 223.636 180.26 224.046 184.139L218.787 184.755C218.414 181.995 217.519 179.906 216.102 178.489C214.685 177.072 212.745 176.363 210.284 176.363C208.046 176.363 206.274 176.941 204.969 178.097C203.663 179.216 203.011 180.801 203.011 182.853C203.011 184.456 203.477 185.724 204.409 186.657C205.342 187.589 206.852 188.317 208.941 188.839L215.766 190.461C218.713 191.17 220.876 192.345 222.256 193.986C223.673 195.627 224.382 197.809 224.382 200.531C224.382 202.993 223.841 205.156 222.759 207.021C221.678 208.886 220.149 210.322 218.172 211.329C216.232 212.336 213.92 212.839 211.235 212.839ZM241.199 212V173.566H246.458V212H241.199ZM229.339 177.258V172.559H258.319V177.258H229.339Z" fill="black"/>
</svg>
