<svg width="388" height="388" viewBox="0 0 388 388" fill="none" xmlns="http://www.w3.org/2000/svg">
<path d="M253.2 49.9473L288.516 14.6328L372.704 98.8213L337.384 134.141H387.346V253.201H337.379L372.701 288.523L288.513 372.712L253.2 337.399V387.343H134.139V337.385L98.8096 372.714L14.6211 288.525L49.9453 253.201H0V134.141H49.9395L14.6172 98.8193L98.8066 14.6309L134.139 49.9619V0H253.2V49.9473Z" fill="#C4BAFF"/>
<path d="M127.177 214L139.709 174.559H145.862L158.338 214H152.912L142.953 180.657H142.618L132.603 214H127.177ZM134.673 203.594V199.007H150.898V203.594H134.673ZM164.638 214V174.559H169.953V214H164.638ZM165.981 214V209.301H189.59V214H165.981ZM165.981 196.154V191.51H187.072V196.154H165.981ZM165.981 179.258V174.559H189.59V179.258H165.981ZM210.827 214.839C206.351 214.839 202.845 213.664 200.309 211.315C197.81 208.965 196.3 205.664 195.778 201.412L201.037 200.741C201.41 203.837 202.398 206.186 204.002 207.79C205.605 209.394 207.899 210.196 210.883 210.196C213.27 210.196 215.116 209.562 216.421 208.294C217.764 206.988 218.436 205.217 218.436 202.979C218.436 201.338 218.007 200.088 217.149 199.23C216.328 198.335 214.892 197.645 212.841 197.161L206.072 195.482C199.992 194.028 196.953 190.615 196.953 185.244C196.953 182.932 197.493 180.918 198.575 179.202C199.657 177.449 201.167 176.107 203.107 175.174C205.046 174.204 207.302 173.72 209.876 173.72C213.867 173.72 217.056 174.82 219.443 177.02C221.83 179.221 223.228 182.26 223.638 186.139L218.38 186.755C218.007 183.995 217.111 181.906 215.694 180.489C214.277 179.072 212.337 178.363 209.876 178.363C207.638 178.363 205.867 178.941 204.561 180.097C203.256 181.216 202.603 182.801 202.603 184.853C202.603 186.456 203.069 187.724 204.002 188.657C204.934 189.589 206.445 190.317 208.533 190.839L215.359 192.461C218.305 193.17 220.468 194.345 221.848 195.986C223.265 197.627 223.974 199.809 223.974 202.531C223.974 204.993 223.433 207.156 222.352 209.021C221.27 210.886 219.741 212.322 217.764 213.329C215.825 214.336 213.512 214.839 210.827 214.839ZM240.792 214V175.566H246.051V214H240.792ZM228.931 179.258V174.559H257.911V179.258H228.931Z" fill="black"/>
</svg>
