<svg width="388" height="388" viewBox="0 0 388 388" fill="none" xmlns="http://www.w3.org/2000/svg">
<path d="M266.72 0L290.045 57.1318C297.506 75.4072 312.01 89.9106 330.285 97.3721L387.258 120.632V266.94L330.285 290.201C312.01 297.663 297.506 312.166 290.045 330.441L266.848 387.26H120.414L97.2158 330.441C89.7544 312.166 75.2517 297.663 56.9766 290.201L0 266.938V120.634L56.9756 97.3721C75.2508 89.9107 89.7543 75.408 97.2158 57.1328L120.542 0H266.72Z" fill="#FF7237"/>
<path d="M126.584 212L139.116 172.559H145.27L157.746 212H152.319L142.361 178.657H142.025L132.011 212H126.584ZM134.081 201.594V197.007H150.305V201.594H134.081ZM165.388 212L159.962 172.559H165.165L168.298 204.839H168.577L173.277 180.279H178.2L182.899 204.839H183.179L186.312 172.559H191.515L186.088 212H180.606L175.85 187.552H175.626L170.871 212H165.388ZM210.235 212.839C205.759 212.839 202.253 211.664 199.717 209.315C197.218 206.965 195.708 203.664 195.185 199.412L200.444 198.741C200.817 201.837 201.806 204.186 203.409 205.79C205.013 207.394 207.307 208.196 210.291 208.196C212.678 208.196 214.524 207.562 215.829 206.294C217.172 204.988 217.843 203.217 217.843 200.979C217.843 199.338 217.414 198.088 216.556 197.23C215.736 196.335 214.3 195.645 212.249 195.161L205.479 193.482C199.4 192.028 196.36 188.615 196.36 183.244C196.36 180.932 196.901 178.918 197.983 177.202C199.064 175.449 200.575 174.107 202.514 173.174C204.454 172.204 206.71 171.72 209.284 171.72C213.274 171.72 216.463 172.82 218.85 175.02C221.237 177.221 222.636 180.26 223.046 184.139L217.787 184.755C217.414 181.995 216.519 179.906 215.102 178.489C213.685 177.072 211.745 176.363 209.284 176.363C207.046 176.363 205.274 176.941 203.969 178.097C202.663 179.216 202.011 180.801 202.011 182.853C202.011 184.456 202.477 185.724 203.409 186.657C204.342 187.589 205.852 188.317 207.941 188.839L214.766 190.461C217.713 191.17 219.876 192.345 221.256 193.986C222.673 195.627 223.382 197.809 223.382 200.531C223.382 202.993 222.841 205.156 221.759 207.021C220.678 208.886 219.149 210.322 217.172 211.329C215.232 212.336 212.92 212.839 210.235 212.839ZM240.199 212V173.566H245.458V212H240.199ZM228.339 177.258V172.559H257.319V177.258H228.339Z" fill="black"/>
</svg>
