<svg width="388" height="388" viewBox="0 0 388 388" fill="none" xmlns="http://www.w3.org/2000/svg">
<path d="M253.198 49.9473L288.514 14.6328L372.702 98.8213L337.382 134.141H387.346V253.201H337.379L372.701 288.523L288.512 372.712L253.198 337.398V387.343H134.137V337.385L98.8076 372.714L14.6191 288.525L49.9434 253.201H0V134.141H49.9385L14.6172 98.8193L98.8066 14.6309L134.137 49.96V0H253.198V49.9473Z" fill="#24CB71"/>
<path d="M160.735 215.011C157.527 215.011 154.767 214.209 152.455 212.605C150.142 210.964 148.352 208.615 147.084 205.556C145.853 202.498 145.238 198.806 145.238 194.479C145.238 190.153 145.853 186.46 147.084 183.402C148.352 180.306 150.142 177.957 152.455 176.353C154.767 174.712 157.527 173.891 160.735 173.891C164.725 173.891 167.914 175.178 170.301 177.752C172.688 180.325 174.087 184.017 174.497 188.829L169.35 189.556C169.014 185.864 168.138 183.141 166.721 181.388C165.303 179.598 163.289 178.703 160.679 178.703C157.583 178.703 155.159 180.064 153.406 182.787C151.653 185.509 150.776 189.407 150.776 194.479C150.776 199.514 151.653 203.393 153.406 206.116C155.159 208.838 157.583 210.2 160.679 210.2C163.289 210.2 165.303 209.323 166.721 207.57C168.175 205.817 169.07 203.095 169.406 199.402L174.497 200.242C174.05 205.016 172.632 208.671 170.245 211.207C167.896 213.743 164.725 215.011 160.735 215.011ZM194.28 215.011C189.804 215.011 186.298 213.836 183.762 211.487C181.263 209.137 179.753 205.836 179.231 201.584L184.489 200.913C184.862 204.009 185.851 206.358 187.455 207.962C189.058 209.566 191.352 210.368 194.336 210.368C196.723 210.368 198.569 209.734 199.874 208.465C201.217 207.16 201.888 205.388 201.888 203.151C201.888 201.51 201.459 200.26 200.602 199.402C199.781 198.507 198.345 197.817 196.294 197.332L189.524 195.654C183.445 194.199 180.405 190.787 180.405 185.416C180.405 183.104 180.946 181.09 182.028 179.374C183.109 177.621 184.62 176.278 186.559 175.346C188.499 174.376 190.755 173.891 193.329 173.891C197.319 173.891 200.508 174.992 202.895 177.192C205.282 179.393 206.681 182.432 207.091 186.311L201.832 186.927C201.459 184.167 200.564 182.078 199.147 180.661C197.73 179.243 195.79 178.535 193.329 178.535C191.091 178.535 189.319 179.113 188.014 180.269C186.709 181.388 186.056 182.973 186.056 185.024C186.056 186.628 186.522 187.896 187.455 188.829C188.387 189.761 189.897 190.488 191.986 191.011L198.811 192.633C201.758 193.342 203.921 194.516 205.301 196.158C206.718 197.799 207.427 199.98 207.427 202.703C207.427 205.165 206.886 207.328 205.804 209.193C204.723 211.058 203.194 212.494 201.217 213.501C199.278 214.508 196.965 215.011 194.28 215.011ZM224.245 214.172V175.738H229.503V214.172H224.245ZM212.384 179.43V174.731H241.364V179.43H212.384Z" fill="black"/>
</svg>
