<svg width="387" height="387" viewBox="0 0 387 387" fill="none" xmlns="http://www.w3.org/2000/svg">
<path d="M245.1 51.6V68.9266L257.352 56.6748C277.503 36.5238 310.174 36.5238 330.325 56.6748C350.476 76.8259 350.476 109.497 330.325 129.648L318.073 141.9H335.4C363.898 141.9 387 165.002 387 193.5C387 221.998 363.898 245.1 335.4 245.1H318.073L330.325 257.352C350.476 277.503 350.476 310.174 330.325 330.325C310.174 350.476 277.503 350.476 257.352 330.325L245.1 318.073V335.4C245.1 363.898 221.998 387 193.5 387C165.002 387 141.9 363.898 141.9 335.4V318.073L129.648 330.325C109.497 350.476 76.8259 350.476 56.6748 330.325C36.5238 310.174 36.5238 277.503 56.6749 257.352L68.9266 245.1H51.6C23.1021 245.1 0 221.998 0 193.5C0 165.002 23.1021 141.9 51.6 141.9H68.9267L56.6749 129.648C36.5239 109.497 36.5239 76.8259 56.6749 56.6748C76.826 36.5238 109.497 36.5238 129.648 56.6748L141.9 68.9265V51.6C141.9 23.1021 165.002 -2.54603e-06 193.5 0C221.998 0 245.1 23.1021 245.1 51.6Z" fill="#4D49FC"/>
<path d="M148.091 214V174.559H153.406V214H148.091ZM149.434 214V209.301H173.043V214H149.434ZM149.434 196.154V191.51H170.525V196.154H149.434ZM149.434 179.258V174.559H173.043V179.258H149.434ZM194.28 214.839C189.804 214.839 186.298 213.664 183.762 211.315C181.263 208.965 179.753 205.664 179.231 201.412L184.489 200.741C184.862 203.837 185.851 206.186 187.455 207.79C189.058 209.394 191.352 210.196 194.336 210.196C196.723 210.196 198.569 209.562 199.874 208.294C201.217 206.988 201.888 205.217 201.888 202.979C201.888 201.338 201.459 200.088 200.602 199.23C199.781 198.335 198.345 197.645 196.294 197.161L189.524 195.482C183.445 194.028 180.405 190.615 180.405 185.244C180.405 182.932 180.946 180.918 182.028 179.202C183.109 177.449 184.62 176.107 186.559 175.174C188.499 174.204 190.755 173.72 193.329 173.72C197.319 173.72 200.508 174.82 202.895 177.02C205.282 179.221 206.681 182.26 207.091 186.139L201.832 186.755C201.459 183.995 200.564 181.906 199.147 180.489C197.73 179.072 195.79 178.363 193.329 178.363C191.091 178.363 189.319 178.941 188.014 180.097C186.709 181.216 186.056 182.801 186.056 184.853C186.056 186.456 186.522 187.724 187.455 188.657C188.387 189.589 189.897 190.317 191.986 190.839L198.811 192.461C201.758 193.17 203.921 194.345 205.301 195.986C206.718 197.627 207.427 199.809 207.427 202.531C207.427 204.993 206.886 207.156 205.804 209.021C204.723 210.886 203.194 212.322 201.217 213.329C199.278 214.336 196.965 214.839 194.28 214.839ZM224.245 214V175.566H229.503V214H224.245ZM212.384 179.258V174.559H241.364V179.258H212.384Z" fill="white"/>
</svg>
