<svg width="427" height="267" viewBox="0 0 427 267" fill="none" xmlns="http://www.w3.org/2000/svg">
<path d="M133.409 266.819H0V133.41H133.409V266.819ZM293.5 0C367.18 0 426.91 59.7293 426.91 133.409V133.41C426.91 207.09 367.18 266.819 293.5 266.819V266.817H280.163V266.819H146.754V266.817H133.412V0H293.5ZM133.409 133.409H0C0.00018289 59.7295 59.7295 0.000255321 133.409 0V133.409Z" fill="#24CB71"/>
<path d="M176.336 150.881V113.678H181.595V150.881H176.336ZM167.497 152V147.301H190.434V152H167.497ZM167.497 117.258V112.559H190.434V117.258H167.497ZM213.462 152.839C208.986 152.839 205.48 151.664 202.944 149.315C200.445 146.965 198.935 143.664 198.413 139.412L203.672 138.741C204.045 141.837 205.033 144.186 206.637 145.79C208.24 147.394 210.534 148.196 213.518 148.196C215.905 148.196 217.751 147.562 219.057 146.294C220.399 144.988 221.071 143.217 221.071 140.979C221.071 139.338 220.642 138.088 219.784 137.23C218.963 136.335 217.527 135.645 215.476 135.161L208.707 133.482C202.627 132.028 199.588 128.615 199.588 123.244C199.588 120.932 200.128 118.918 201.21 117.202C202.292 115.449 203.802 114.107 205.742 113.174C207.681 112.204 209.937 111.72 212.511 111.72C216.502 111.72 219.691 112.82 222.078 115.02C224.465 117.221 225.863 120.26 226.273 124.139L221.015 124.755C220.642 121.995 219.746 119.906 218.329 118.489C216.912 117.072 214.973 116.363 212.511 116.363C210.273 116.363 208.502 116.941 207.196 118.097C205.891 119.216 205.238 120.801 205.238 122.853C205.238 124.456 205.704 125.724 206.637 126.657C207.569 127.589 209.08 128.317 211.168 128.839L217.994 130.461C220.94 131.17 223.103 132.345 224.483 133.986C225.9 135.627 226.609 137.809 226.609 140.531C226.609 142.993 226.068 145.156 224.987 147.021C223.905 148.886 222.376 150.322 220.399 151.329C218.46 152.336 216.147 152.839 213.462 152.839ZM243.427 152V113.566H248.686V152H243.427ZM231.566 117.258V112.559H260.546V117.258H231.566Z" fill="black"/>
</svg>
