<svg width="388" height="388" viewBox="0 0 388 388" fill="none" xmlns="http://www.w3.org/2000/svg">
<path d="M266.718 0L290.043 57.1318C297.504 75.4072 312.008 89.9106 330.283 97.3721L387.26 120.634V266.938L330.283 290.201C312.008 297.663 297.504 312.166 290.043 330.441L266.846 387.26H120.412L97.2139 330.441C89.7525 312.166 75.2498 297.663 56.9746 290.201L0 266.939V120.634L56.9736 97.3721C75.2488 89.9107 89.7524 75.408 97.2139 57.1328L120.54 0H266.718Z" fill="#E4FF97"/>
<path d="M147.252 207V167.559H160.791C164.968 167.559 168.25 168.64 170.637 170.804C173.024 172.929 174.217 175.839 174.217 179.531C174.217 183.223 173.024 186.151 170.637 188.314C168.25 190.44 164.968 191.503 160.791 191.503H150.888V186.916H160.679C163.252 186.916 165.229 186.263 166.609 184.958C167.989 183.615 168.679 181.806 168.679 179.531C168.679 177.256 167.989 175.466 166.609 174.16C165.229 172.818 163.252 172.146 160.679 172.146H152.567V207H147.252ZM194.28 207.839C189.804 207.839 186.298 206.664 183.762 204.315C181.263 201.965 179.753 198.664 179.231 194.412L184.489 193.741C184.862 196.837 185.851 199.186 187.455 200.79C189.058 202.394 191.352 203.196 194.336 203.196C196.723 203.196 198.569 202.562 199.874 201.294C201.217 199.988 201.888 198.217 201.888 195.979C201.888 194.338 201.459 193.088 200.602 192.23C199.781 191.335 198.345 190.645 196.294 190.161L189.524 188.482C183.445 187.028 180.405 183.615 180.405 178.244C180.405 175.932 180.946 173.918 182.028 172.202C183.109 170.449 184.62 169.107 186.559 168.174C188.499 167.204 190.755 166.72 193.329 166.72C197.319 166.72 200.508 167.82 202.895 170.02C205.282 172.221 206.681 175.26 207.091 179.139L201.832 179.755C201.459 176.995 200.564 174.906 199.147 173.489C197.73 172.072 195.79 171.363 193.329 171.363C191.091 171.363 189.319 171.941 188.014 173.097C186.709 174.216 186.056 175.801 186.056 177.853C186.056 179.456 186.522 180.724 187.455 181.657C188.387 182.589 189.897 183.317 191.986 183.839L198.811 185.461C201.758 186.17 203.921 187.345 205.301 188.986C206.718 190.627 207.427 192.809 207.427 195.531C207.427 197.993 206.886 200.156 205.804 202.021C204.723 203.886 203.194 205.322 201.217 206.329C199.278 207.336 196.965 207.839 194.28 207.839ZM224.245 207V168.566H229.503V207H224.245ZM212.384 172.258V167.559H241.364V172.258H212.384Z" fill="black"/>
</svg>
