<svg width="402" height="120" viewBox="0 0 402 120" fill="none" xmlns="http://www.w3.org/2000/svg">
<rect width="401.458" height="119.837" rx="59.9185" fill="#C4BAFF"/>
<path d="M63.8831 79.2996V42.0961H69.142V79.2996H63.8831ZM55.0438 80.4185V75.7191H77.9813V80.4185H55.0438ZM55.0438 45.6765V40.9772H77.9813V45.6765H55.0438ZM87.0785 80.4185V40.9772H92.5611L107.778 71.1316H108.058V40.9772H113.037V80.4185H107.498L92.3373 50.264H92.0576V80.4185H87.0785ZM130.974 80.4185V41.9842H136.232V80.4185H130.974ZM119.113 45.6765V40.9772H148.093V45.6765H119.113ZM154.113 80.4185V40.9772H168.827C172.631 40.9772 175.596 41.9096 177.722 43.7744C179.885 45.6393 180.967 48.2314 180.967 51.5508C180.967 53.0427 180.668 54.4599 180.071 55.8026C179.475 57.108 178.654 58.2269 177.61 59.1593C176.566 60.0544 175.353 60.6698 173.973 61.0055V61.1733C175.726 61.2852 177.088 61.8447 178.057 62.8517C179.027 63.8214 179.605 65.3692 179.792 67.4951L180.967 80.4185H175.596L174.701 68.614C174.589 66.8611 174.141 65.6303 173.358 64.9217C172.612 64.1757 171.344 63.8028 169.554 63.8028H158.533V59.3831H168.715C169.983 59.3831 171.12 59.0847 172.127 58.488C173.172 57.8912 173.992 57.0521 174.589 55.9704C175.186 54.8888 175.484 53.6208 175.484 52.1662C175.484 50.003 174.85 48.3619 173.582 47.243C172.351 46.1241 170.579 45.5647 168.267 45.5647H159.428V80.4185H154.113ZM200.693 81.2576C197.635 81.2576 195.024 80.3998 192.861 78.6842C190.698 76.9685 189.038 74.5815 187.882 71.5232C186.726 68.4276 186.148 64.8284 186.148 60.7258C186.148 56.6231 186.726 53.024 187.882 49.9284C189.038 46.8327 190.698 44.4271 192.861 42.7115C195.024 40.9958 197.635 40.138 200.693 40.138C203.752 40.138 206.362 40.9958 208.526 42.7115C210.689 44.4271 212.349 46.8327 213.505 49.9284C214.661 53.024 215.239 56.6231 215.239 60.7258C215.239 64.8284 214.661 68.4276 213.505 71.5232C212.349 74.5815 210.689 76.9685 208.526 78.6842C206.362 80.3998 203.752 81.2576 200.693 81.2576ZM200.693 76.4464C202.67 76.4464 204.311 75.8123 205.617 74.5442C206.959 73.2761 207.966 71.4672 208.638 69.1175C209.346 66.7306 209.701 63.9333 209.701 60.7258C209.701 57.5183 209.346 54.7397 208.638 52.39C207.966 50.003 206.959 48.1754 205.617 46.9073C204.311 45.602 202.67 44.9493 200.693 44.9493C198.754 44.9493 197.113 45.602 195.77 46.9073C194.428 48.1754 193.402 50.003 192.693 52.39C192.022 54.7397 191.686 57.5183 191.686 60.7258C191.686 63.9333 192.022 66.7306 192.693 69.1175C193.402 71.4672 194.428 73.2761 195.77 74.5442C197.113 75.8123 198.754 76.4464 200.693 76.4464ZM231.553 80.4185L219.245 40.9772H225.287L234.071 73.1456H234.406L243.19 40.9772H249.232L236.924 80.4185H231.553ZM256.091 80.4185V40.9772H261.406V80.4185H256.091ZM257.434 80.4185V75.7191H281.043V80.4185H257.434ZM257.434 62.572V57.9285H278.525V62.572H257.434ZM257.434 45.6765V40.9772H281.043V45.6765H257.434ZM288.294 80.4185V40.9772H303.007C306.812 40.9772 309.777 41.9096 311.903 43.7744C314.066 45.6393 315.147 48.2314 315.147 51.5508C315.147 53.0427 314.849 54.4599 314.252 55.8026C313.656 57.108 312.835 58.2269 311.791 59.1593C310.746 60.0544 309.534 60.6698 308.154 61.0055V61.1733C309.907 61.2852 311.269 61.8447 312.238 62.8517C313.208 63.8214 313.786 65.3692 313.973 67.4951L315.147 80.4185H309.777L308.882 68.614C308.77 66.8611 308.322 65.6303 307.539 64.9217C306.793 64.1757 305.525 63.8028 303.735 63.8028H292.713V59.3831H302.895C304.164 59.3831 305.301 59.0847 306.308 58.488C307.352 57.8912 308.173 57.0521 308.77 55.9704C309.366 54.8888 309.665 53.6208 309.665 52.1662C309.665 50.003 309.031 48.3619 307.763 47.243C306.532 46.1241 304.76 45.5647 302.448 45.5647H293.609V80.4185H288.294ZM332.245 80.4185V41.9842H337.504V80.4185H332.245ZM320.384 45.6765V40.9772H349.364V45.6765H320.384Z" fill="black"/>
</svg>
