<svg width="402" height="120" viewBox="0 0 402 120" fill="none" xmlns="http://www.w3.org/2000/svg">
<rect width="401.458" height="119.837" rx="59.9185" fill="#FF7237"/>
<path d="M54.82 80.4189V40.9776H60.1348V80.4189H54.82ZM56.1627 80.4189V75.7196H79.7715V80.4189H56.1627ZM56.1627 62.5725V57.929H77.254V62.5725H56.1627ZM56.1627 45.677V40.9776H79.7715V45.677H56.1627ZM84.5609 80.4189L96.8129 60.1668L85.1763 40.9776H91.2184L100.002 56.3066H100.282L108.841 40.9776H114.771L103.303 59.8871L115.61 80.4189H109.568L100.17 63.9151H99.834L90.4352 80.4189H84.5609ZM130.974 80.4189V41.9847H136.232V80.4189H130.974ZM119.113 45.677V40.9776H148.093V45.677H119.113ZM154.113 80.4189V40.9776H168.827C172.631 40.9776 175.596 41.9101 177.722 43.7749C179.885 45.6397 180.967 48.2319 180.967 51.5513C180.967 53.0431 180.668 54.4604 180.071 55.8031C179.475 57.1085 178.654 58.2274 177.61 59.1598C176.566 60.0549 175.353 60.6703 173.973 61.006V61.1738C175.726 61.2857 177.088 61.8452 178.057 62.8522C179.027 63.8219 179.605 65.3697 179.792 67.4956L180.967 80.4189H175.596L174.701 68.6145C174.589 66.8616 174.141 65.6308 173.358 64.9222C172.612 64.1762 171.344 63.8032 169.554 63.8032H158.533V59.3836H168.715C169.983 59.3836 171.12 59.0852 172.127 58.4885C173.172 57.8917 173.992 57.0525 174.589 55.9709C175.186 54.8893 175.484 53.6212 175.484 52.1667C175.484 50.0035 174.85 48.3624 173.582 47.2435C172.351 46.1246 170.579 45.5651 168.267 45.5651H159.428V80.4189H154.113ZM200.693 81.2581C197.635 81.2581 195.024 80.4003 192.861 78.6846C190.698 76.969 189.038 74.582 187.882 71.5237C186.726 68.428 186.148 64.8289 186.148 60.7263C186.148 56.6236 186.726 53.0245 187.882 49.9289C189.038 46.8332 190.698 44.4276 192.861 42.7119C195.024 40.9963 197.635 40.1385 200.693 40.1385C203.752 40.1385 206.362 40.9963 208.526 42.7119C210.689 44.4276 212.349 46.8332 213.505 49.9289C214.661 53.0245 215.239 56.6236 215.239 60.7263C215.239 64.8289 214.661 68.428 213.505 71.5237C212.349 74.582 210.689 76.969 208.526 78.6846C206.362 80.4003 203.752 81.2581 200.693 81.2581ZM200.693 76.4468C202.67 76.4468 204.311 75.8128 205.617 74.5447C206.959 73.2766 207.966 71.4677 208.638 69.118C209.346 66.731 209.701 63.9338 209.701 60.7263C209.701 57.5187 209.346 54.7401 208.638 52.3904C207.966 50.0035 206.959 48.1759 205.617 46.9078C204.311 45.6024 202.67 44.9498 200.693 44.9498C198.754 44.9498 197.113 45.6024 195.77 46.9078C194.428 48.1759 193.402 50.0035 192.693 52.3904C192.022 54.7401 191.686 57.5187 191.686 60.7263C191.686 63.9338 192.022 66.731 192.693 69.118C193.402 71.4677 194.428 73.2766 195.77 74.5447C197.113 75.8128 198.754 76.4468 200.693 76.4468ZM231.553 80.4189L219.245 40.9776H225.287L234.071 73.1461H234.406L243.19 40.9776H249.232L236.924 80.4189H231.553ZM256.091 80.4189V40.9776H261.406V80.4189H256.091ZM257.434 80.4189V75.7196H281.043V80.4189H257.434ZM257.434 62.5725V57.929H278.525V62.5725H257.434ZM257.434 45.677V40.9776H281.043V45.677H257.434ZM288.294 80.4189V40.9776H303.007C306.812 40.9776 309.777 41.9101 311.903 43.7749C314.066 45.6397 315.147 48.2319 315.147 51.5513C315.147 53.0431 314.849 54.4604 314.252 55.8031C313.656 57.1085 312.835 58.2274 311.791 59.1598C310.746 60.0549 309.534 60.6703 308.154 61.006V61.1738C309.907 61.2857 311.269 61.8452 312.238 62.8522C313.208 63.8219 313.786 65.3697 313.973 67.4956L315.147 80.4189H309.777L308.882 68.6145C308.77 66.8616 308.322 65.6308 307.539 64.9222C306.793 64.1762 305.525 63.8032 303.735 63.8032H292.713V59.3836H302.895C304.164 59.3836 305.301 59.0852 306.308 58.4885C307.352 57.8917 308.173 57.0525 308.77 55.9709C309.366 54.8893 309.665 53.6212 309.665 52.1667C309.665 50.0035 309.031 48.3624 307.763 47.2435C306.532 46.1246 304.76 45.5651 302.448 45.5651H293.609V80.4189H288.294ZM332.245 80.4189V41.9847H337.504V80.4189H332.245ZM320.384 45.677V40.9776H349.364V45.677H320.384Z" fill="black"/>
</svg>
