<svg width="422" height="293" viewBox="0 0 422 293" fill="none" xmlns="http://www.w3.org/2000/svg">
<path d="M146.13 35.9854L185.877 0H235.817L275.564 35.9854L315.312 0H362.17L421.693 53.8906V238.368L362.17 292.259H315.312L275.564 256.273L235.817 292.259H185.877L146.13 256.273L106.384 292.259H59.5244L0 238.368V53.8906L59.5244 0H106.384L146.13 35.9854Z" fill="#24CB71"/>
<path d="M63.0588 165.342V125.9H73.5206C77.1011 125.9 80.1221 126.758 82.5837 128.474C85.0453 130.19 86.9101 132.539 88.1782 135.523C89.4463 138.469 90.0803 141.845 90.0803 145.649C90.0803 149.453 89.4463 152.847 88.1782 155.831C86.9101 158.778 85.0453 161.109 82.5837 162.824C80.1221 164.503 77.1011 165.342 73.5206 165.342H63.0588ZM68.3736 162.489L66.7512 160.866H73.3527C76.8213 160.866 79.544 159.598 81.5207 157.062C83.4975 154.526 84.4858 150.721 84.4858 145.649C84.4858 140.577 83.4975 136.772 81.5207 134.236C79.544 131.663 76.8213 130.376 73.3527 130.376H66.7512L68.3736 128.754V162.489ZM97.8908 165.342V125.9H103.206V165.342H97.8908ZM99.2335 165.342V160.642H122.842V165.342H99.2335ZM99.2335 147.495V142.852H120.325V147.495H99.2335ZM99.2335 130.6V125.9H122.842V130.6H99.2335ZM140.443 165.342L128.135 125.9H134.177L142.961 158.069H143.296L152.08 125.9H158.122L145.814 165.342H140.443ZM164.981 165.342V125.9H170.296V165.342H164.981ZM166.324 165.342V160.642H189.933V165.342H166.324ZM166.324 147.495V142.852H187.415V147.495H166.324ZM166.324 130.6V125.9H189.933V130.6H166.324ZM199.254 165.342V125.9H204.568V165.342H199.254ZM200.317 165.342V160.642H222.583V165.342H200.317ZM243.764 166.181C240.706 166.181 238.095 165.323 235.932 163.607C233.769 161.892 232.109 159.505 230.953 156.447C229.797 153.351 229.218 149.752 229.218 145.649C229.218 141.546 229.797 137.947 230.953 134.852C232.109 131.756 233.769 129.35 235.932 127.635C238.095 125.919 240.706 125.061 243.764 125.061C246.822 125.061 249.433 125.919 251.596 127.635C253.76 129.35 255.419 131.756 256.576 134.852C257.732 137.947 258.31 141.546 258.31 145.649C258.31 149.752 257.732 153.351 256.576 156.447C255.419 159.505 253.76 161.892 251.596 163.607C249.433 165.323 246.822 166.181 243.764 166.181ZM243.764 161.37C245.741 161.37 247.382 160.736 248.687 159.468C250.03 158.199 251.037 156.391 251.708 154.041C252.417 151.654 252.771 148.857 252.771 145.649C252.771 142.442 252.417 139.663 251.708 137.313C251.037 134.926 250.03 133.099 248.687 131.831C247.382 130.525 245.741 129.873 243.764 129.873C241.825 129.873 240.184 130.525 238.841 131.831C237.498 133.099 236.473 134.926 235.764 137.313C235.093 139.663 234.757 142.442 234.757 145.649C234.757 148.857 235.093 151.654 235.764 154.041C236.473 156.391 237.498 158.199 238.841 159.468C240.184 160.736 241.825 161.37 243.764 161.37ZM264.778 165.342V125.9H278.316C282.494 125.9 285.776 126.982 288.163 129.145C290.55 131.271 291.743 134.18 291.743 137.873C291.743 141.565 290.55 144.493 288.163 146.656C285.776 148.782 282.494 149.845 278.316 149.845H268.414V145.258H278.204C280.778 145.258 282.755 144.605 284.135 143.299C285.515 141.957 286.205 140.148 286.205 137.873C286.205 135.598 285.515 133.807 284.135 132.502C282.755 131.159 280.778 130.488 278.204 130.488H270.092V165.342H264.778ZM299.162 165.342V125.9H304.477V165.342H299.162ZM300.505 165.342V160.642H324.114V165.342H300.505ZM300.505 147.495V142.852H321.596V147.495H300.505ZM300.505 130.6V125.9H324.114V130.6H300.505ZM331.365 165.342V125.9H346.078C349.882 125.9 352.847 126.833 354.973 128.698C357.137 130.563 358.218 133.155 358.218 136.474C358.218 137.966 357.92 139.383 357.323 140.726C356.726 142.031 355.906 143.15 354.862 144.083C353.817 144.978 352.605 145.593 351.225 145.929V146.097C352.978 146.209 354.339 146.768 355.309 147.775C356.279 148.745 356.857 150.293 357.043 152.418L358.218 165.342H352.847L351.952 153.537C351.84 151.784 351.393 150.554 350.61 149.845C349.864 149.099 348.596 148.726 346.805 148.726H335.784V144.306H345.966C347.234 144.306 348.372 144.008 349.379 143.411C350.423 142.815 351.244 141.975 351.84 140.894C352.437 139.812 352.736 138.544 352.736 137.09C352.736 134.926 352.102 133.285 350.833 132.166C349.603 131.047 347.831 130.488 345.519 130.488H336.679V165.342H331.365Z" fill="black"/>
</svg>
