<svg width="397" height="287" viewBox="0 0 397 287" fill="none" xmlns="http://www.w3.org/2000/svg">
<path fill-rule="evenodd" clip-rule="evenodd" d="M377.881 178.929C402.409 203.457 402.409 243.225 377.881 267.754C353.353 292.282 313.584 292.282 289.056 267.754L259.396 238.093C252.826 265.84 227.892 286.484 198.137 286.484C168.382 286.484 143.451 265.841 136.88 238.095L107.221 267.754C82.6925 292.283 42.9246 292.282 18.3964 267.754C-6.13166 243.226 -6.13178 203.458 18.3964 178.93L54.2519 143.075L18.3964 107.22C-6.13172 82.6921 -6.13175 42.9243 18.3964 18.3961C42.9246 -6.13204 82.6924 -6.13206 107.221 18.3961L137.448 48.6227C144.793 22.0031 169.181 2.45389 198.137 2.45371C227.093 2.45371 251.483 22.0038 258.827 48.6246L289.056 18.3961C313.584 -6.13189 353.353 -6.1318 377.881 18.3961C402.409 42.9243 402.409 82.693 377.881 107.221L342.027 143.075L377.881 178.929Z" fill="#24CB71"/>
<path d="M164.935 129.516C160.721 129.516 157.401 128.49 154.977 126.439C152.553 124.35 151.136 121.404 150.725 117.6L156.152 116.928C156.339 119.353 157.215 121.273 158.781 122.691C160.385 124.108 162.437 124.817 164.935 124.817C167.322 124.817 169.243 124.164 170.698 122.858C172.19 121.516 172.936 119.744 172.936 117.544C172.936 115.306 172.208 113.59 170.754 112.397C169.336 111.203 167.304 110.606 164.656 110.606H159.677V106.019H164.6C166.763 106.019 168.497 105.404 169.803 104.173C171.108 102.942 171.761 101.301 171.761 99.2496C171.761 97.3475 171.145 95.8556 169.915 94.774C168.721 93.6551 167.061 93.0957 164.935 93.0957C162.511 93.0957 160.59 93.7857 159.173 95.1656C157.756 96.5456 156.898 98.4291 156.6 100.816L151.173 100.257C151.658 96.4524 153.112 93.5246 155.537 91.4733C157.961 89.4219 161.168 88.3963 165.159 88.3963C168.963 88.3963 171.929 89.3473 174.054 91.2495C176.218 93.1516 177.299 95.7624 177.299 99.0818C177.299 101.021 176.758 102.774 175.677 104.341C174.595 105.907 173.029 107.045 170.977 107.753V107.977C173.402 108.499 175.248 109.599 176.516 111.278C177.821 112.956 178.474 115.063 178.474 117.6C178.474 119.949 177.896 122.038 176.74 123.865C175.621 125.656 174.054 127.054 172.04 128.061C170.026 129.031 167.658 129.516 164.935 129.516ZM185.11 128.677V89.2355H199.823C203.628 89.2355 206.593 90.1679 208.719 92.0327C210.882 93.8976 211.963 96.4897 211.963 99.8091C211.963 101.301 211.665 102.718 211.068 104.061C210.472 105.366 209.651 106.485 208.607 107.418C207.562 108.313 206.35 108.928 204.97 109.264V109.432C206.723 109.544 208.085 110.103 209.054 111.11C210.024 112.08 210.602 113.628 210.789 115.753L211.963 128.677H206.593L205.698 116.872C205.586 115.119 205.138 113.889 204.355 113.18C203.609 112.434 202.341 112.061 200.551 112.061H189.529V107.641H199.711C200.98 107.641 202.117 107.343 203.124 106.746C204.168 106.15 204.989 105.31 205.586 104.229C206.182 103.147 206.481 101.879 206.481 100.424C206.481 98.2613 205.847 96.6202 204.579 95.5013C203.348 94.3824 201.576 93.823 199.264 93.823H190.425V128.677H185.11ZM218.711 128.677V89.2355H229.173C232.753 89.2355 235.774 90.0933 238.236 91.8089C240.697 93.5246 242.562 95.8743 243.83 98.858C245.098 101.804 245.732 105.18 245.732 108.984C245.732 112.788 245.098 116.182 243.83 119.166C242.562 122.113 240.697 124.444 238.236 126.159C235.774 127.838 232.753 128.677 229.173 128.677H218.711ZM224.026 125.824L222.403 124.201H229.005C232.473 124.201 235.196 122.933 237.173 120.397C239.15 117.861 240.138 114.056 240.138 108.984C240.138 103.912 239.15 100.107 237.173 97.5713C235.196 94.9978 232.473 93.7111 229.005 93.7111H222.403L224.026 92.0887V125.824ZM146.261 182.25L132.89 156.235H139.212L147.715 175.369H147.939L156.443 156.235H162.764L149.45 182.25H146.261ZM145.198 195.677V177.662H150.457V195.677H145.198ZM169.68 195.677V156.235H174.995V195.677H169.68ZM171.022 195.677V190.977H194.631V195.677H171.022ZM171.022 177.83V173.187H192.114V177.83H171.022ZM171.022 160.935V156.235H194.631V160.935H171.022ZM199.309 195.677L211.841 156.235H217.995L230.47 195.677H225.044L215.085 162.333H214.75L204.736 195.677H199.309ZM206.806 185.271V180.683H223.03V185.271H206.806ZM235.428 195.677V156.235H250.141C253.945 156.235 256.91 157.168 259.036 159.033C261.2 160.898 262.281 163.49 262.281 166.809C262.281 168.301 261.983 169.718 261.386 171.061C260.789 172.366 259.969 173.485 258.924 174.418C257.88 175.313 256.668 175.928 255.288 176.264V176.432C257.041 176.544 258.402 177.103 259.372 178.11C260.342 179.08 260.92 180.628 261.106 182.753L262.281 195.677H256.91L256.015 183.872C255.903 182.119 255.456 180.889 254.673 180.18C253.927 179.434 252.659 179.061 250.868 179.061H239.847V174.641H250.029C251.297 174.641 252.435 174.343 253.442 173.746C254.486 173.15 255.307 172.31 255.903 171.229C256.5 170.147 256.799 168.879 256.799 167.424C256.799 165.261 256.165 163.62 254.896 162.501C253.666 161.382 251.894 160.823 249.582 160.823H240.742V195.677H235.428Z" fill="black"/>
</svg>
