<svg width="369" height="120" viewBox="0 0 369 120" fill="none" xmlns="http://www.w3.org/2000/svg">
<rect width="368.458" height="119.837" fill="#E4FF97"/>
<path d="M67.4636 81.2581C62.988 81.2581 59.4821 80.0833 56.9459 77.7336C54.447 75.3839 52.9365 72.0831 52.4144 67.8313L57.6732 67.16C58.0462 70.2556 59.0345 72.6053 60.6383 74.209C62.2421 75.8128 64.5358 76.6147 67.5195 76.6147C69.9065 76.6147 71.7527 75.9806 73.0581 74.7125C74.4008 73.4072 75.0721 71.6356 75.0721 69.3978C75.0721 67.7567 74.6432 66.5073 73.7854 65.6494C72.9649 64.7543 71.5289 64.0643 69.4776 63.5795L62.7083 61.9011C56.6289 60.4465 53.5892 57.0339 53.5892 51.6632C53.5892 49.3508 54.13 47.3367 55.2116 45.6211C56.2932 43.8681 57.8037 42.5255 59.7432 41.593C61.6826 40.6233 63.9391 40.1385 66.5125 40.1385C70.5033 40.1385 73.6922 41.2387 76.0791 43.4392C78.4661 45.6397 79.8648 48.6794 80.275 52.5583L75.0162 53.1737C74.6432 50.4137 73.7481 48.3251 72.3308 46.9078C70.9136 45.4906 68.9741 44.7819 66.5125 44.7819C64.2747 44.7819 62.5031 45.36 61.1978 46.5162C59.8924 47.6351 59.2397 49.2202 59.2397 51.2715C59.2397 52.8753 59.7059 54.1434 60.6383 55.0758C61.5707 56.0082 63.0812 56.7355 65.1699 57.2577L71.9952 58.8801C74.9416 59.5887 77.1048 60.7636 78.4848 62.4046C79.9021 64.0457 80.6107 66.2275 80.6107 68.9502C80.6107 71.4118 80.0699 73.575 78.9883 75.4398C77.9067 77.3047 76.3775 78.7406 74.4008 79.7476C72.4614 80.7546 70.149 81.2581 67.4636 81.2581ZM107.722 80.4189V40.9776H113.037V80.4189H107.722ZM87.0785 80.4189V40.9776H92.3933V80.4189H87.0785ZM91.4981 62.4046V57.5374H108.617V62.4046H91.4981ZM121.91 80.4189V40.9776H127.225V80.4189H121.91ZM123.253 80.4189V75.7196H146.862V80.4189H123.253ZM123.253 62.5725V57.929H144.344V62.5725H123.253ZM123.253 45.677V40.9776H146.862V45.677H123.253ZM152.602 86.0135L176.603 37.3412H181.694L157.693 86.0135H152.602ZM198.064 80.4189V41.9847H203.323V80.4189H198.064ZM186.204 45.677V40.9776H215.183V45.677H186.204ZM241.903 80.4189V40.9776H247.218V80.4189H241.903ZM221.259 80.4189V40.9776H226.574V80.4189H221.259ZM225.679 62.4046V57.5374H242.798V62.4046H225.679ZM256.091 80.4189V40.9776H261.406V80.4189H256.091ZM257.434 80.4189V75.7196H281.043V80.4189H257.434ZM257.434 62.5725V57.929H278.525V62.5725H257.434ZM257.434 45.677V40.9776H281.043V45.677H257.434ZM299.763 66.9921L286.392 40.9776H292.713L301.217 60.1109H301.441L309.945 40.9776H316.266L302.951 66.9921H299.763ZM298.7 80.4189V62.4046H303.958V80.4189H298.7Z" fill="black"/>
</svg>
