<svg width="422" height="293" viewBox="0 0 422 293" fill="none" xmlns="http://www.w3.org/2000/svg">
<path d="M146.13 35.9854L185.877 0H235.817L275.564 35.9854L315.312 0H362.17L421.693 53.8906V238.368L362.17 292.259H315.312L275.564 256.273L235.817 292.259H185.877L146.13 256.273L106.384 292.259H59.5244L0 238.368V53.8906L59.5244 0H106.384L146.13 35.9854Z" fill="#FF7237"/>
<path d="M66.93 165.342V125.901H72.2448V165.342H66.93ZM46.2862 165.342V125.901H51.601V165.342H46.2862ZM50.7059 147.328V142.461H67.8251V147.328H50.7059ZM81.1182 165.342V125.901H86.433V165.342H81.1182ZM82.4609 165.342V160.643H106.07V165.342H82.4609ZM82.4609 147.496V142.852H103.552V147.496H82.4609ZM82.4609 130.6V125.901H106.07V130.6H82.4609ZM113.321 165.342V125.901H128.034C131.839 125.901 134.804 126.833 136.93 128.698C139.093 130.563 140.174 133.155 140.174 136.475C140.174 137.966 139.876 139.384 139.279 140.726C138.682 142.032 137.862 143.151 136.818 144.083C135.773 144.978 134.561 145.594 133.181 145.929V146.097C134.934 146.209 136.295 146.769 137.265 147.776C138.235 148.745 138.813 150.293 139 152.419L140.174 165.342H134.804L133.909 153.538C133.797 151.785 133.349 150.554 132.566 149.845C131.82 149.1 130.552 148.727 128.762 148.727H117.74V144.307H127.922C129.19 144.307 130.328 144.009 131.335 143.412C132.379 142.815 133.2 141.976 133.797 140.894C134.393 139.813 134.692 138.545 134.692 137.09C134.692 134.927 134.058 133.286 132.79 132.167C131.559 131.048 129.787 130.488 127.475 130.488H118.635V165.342H113.321ZM148.209 165.342V125.901H153.523V165.342H148.209ZM149.551 165.342V160.643H173.16V165.342H149.551ZM149.551 147.496V142.852H170.643V147.496H149.551ZM149.551 130.6V125.901H173.16V130.6H149.551ZM213.844 165.342V161.594C213.844 158.685 214.534 156.186 215.914 154.097C217.294 151.971 219.383 150.069 222.18 148.391L227.775 145.146C229.789 143.915 231.281 142.61 232.25 141.23C233.22 139.85 233.705 138.172 233.705 136.195C233.705 134.181 233.09 132.614 231.859 131.495C230.665 130.339 229.006 129.761 226.88 129.761C224.493 129.761 222.591 130.488 221.173 131.943C219.793 133.36 218.973 135.468 218.712 138.265L213.453 137.761C213.788 133.771 215.131 130.656 217.481 128.419C219.868 126.181 223.038 125.062 226.992 125.062C230.721 125.062 233.686 126.069 235.887 128.083C238.087 130.06 239.188 132.782 239.188 136.251C239.188 139.011 238.516 141.379 237.174 143.356C235.868 145.295 233.686 147.179 230.628 149.006L224.922 152.363C223.616 153.146 222.535 153.929 221.677 154.713C220.856 155.496 220.241 156.41 219.831 157.454C219.42 158.461 219.215 159.729 219.215 161.258L217.369 160.643H240.53V165.342H213.844ZM283.732 165.342L278.305 125.901H283.508L286.641 158.181H286.921L291.62 133.621H296.544L301.243 158.181H301.523L304.656 125.901H309.858L304.432 165.342H298.949L294.194 140.894H293.97L289.215 165.342H283.732ZM324.998 164.223V127.02H330.257V164.223H324.998ZM316.158 165.342V160.643H339.096V165.342H316.158ZM316.158 130.6V125.901H339.096V130.6H316.158ZM348.193 165.342V125.901H353.676L368.893 156.055H369.173V125.901H374.152V165.342H368.613L353.452 135.188H353.172V165.342H348.193Z" fill="black"/>
</svg>
