<svg width="422" height="293" viewBox="0 0 422 293" fill="none" xmlns="http://www.w3.org/2000/svg">
<path d="M146.13 35.9854L185.877 0H235.817L275.564 35.9854L315.312 0H362.17L421.693 53.8906V238.368L362.17 292.259H315.312L275.564 256.273L235.817 292.259H185.877L146.13 256.273L106.384 292.259H59.5244L0 238.368V53.8906L59.5244 0H106.384L146.13 35.9854Z" fill="#FF01E5"/>
<path d="M80.3314 165.342V125.901H90.7932C94.3737 125.901 97.3947 126.759 99.8563 128.474C102.318 130.19 104.183 132.54 105.451 135.524C106.719 138.47 107.353 141.845 107.353 145.65C107.353 149.454 106.719 152.848 105.451 155.832C104.183 158.778 102.318 161.109 99.8563 162.825C97.3947 164.503 94.3737 165.342 90.7932 165.342H80.3314ZM85.6462 162.489L84.0238 160.867H90.6253C94.0939 160.867 96.8166 159.599 98.7933 157.062C100.77 154.526 101.758 150.722 101.758 145.65C101.758 140.577 100.77 136.773 98.7933 134.237C96.8166 131.663 94.0939 130.377 90.6253 130.377H84.0238L85.6462 128.754V162.489ZM115.163 165.342V125.901H120.478V165.342H115.163ZM116.506 165.342V160.643H140.115V165.342H116.506ZM116.506 147.496V142.852H137.597V147.496H116.506ZM116.506 130.6V125.901H140.115V130.6H116.506ZM161.352 166.181C156.877 166.181 153.371 165.007 150.835 162.657C148.336 160.307 146.825 157.006 146.303 152.755L151.562 152.083C151.935 155.179 152.923 157.529 154.527 159.132C156.131 160.736 158.424 161.538 161.408 161.538C163.795 161.538 165.641 160.904 166.947 159.636C168.289 158.33 168.961 156.559 168.961 154.321C168.961 152.68 168.532 151.431 167.674 150.573C166.853 149.678 165.418 148.988 163.366 148.503L156.597 146.824C150.517 145.37 147.478 141.957 147.478 136.587C147.478 134.274 148.019 132.26 149.1 130.544C150.182 128.791 151.692 127.449 153.632 126.516C155.571 125.547 157.828 125.062 160.401 125.062C164.392 125.062 167.581 126.162 169.968 128.363C172.355 130.563 173.753 133.603 174.164 137.482L168.905 138.097C168.532 135.337 167.637 133.248 166.219 131.831C164.802 130.414 162.863 129.705 160.401 129.705C158.163 129.705 156.392 130.283 155.086 131.44C153.781 132.558 153.128 134.144 153.128 136.195C153.128 137.799 153.594 139.067 154.527 139.999C155.459 140.932 156.97 141.659 159.058 142.181L165.884 143.803C168.83 144.512 170.993 145.687 172.373 147.328C173.791 148.969 174.499 151.151 174.499 153.874C174.499 156.335 173.958 158.498 172.877 160.363C171.795 162.228 170.266 163.664 168.289 164.671C166.35 165.678 164.038 166.181 161.352 166.181ZM191.317 164.223V127.02H196.576V164.223H191.317ZM182.478 165.342V160.643H205.415V165.342H182.478ZM182.478 130.6V125.901H205.415V130.6H182.478ZM227.603 166.181C224.694 166.181 222.177 165.361 220.051 163.72C217.925 162.079 216.284 159.729 215.128 156.671C214.009 153.575 213.449 149.92 213.449 145.706C213.449 141.416 214.027 137.743 215.184 134.684C216.34 131.589 218 129.22 220.163 127.579C222.363 125.901 224.974 125.062 227.995 125.062C230.419 125.062 232.527 125.547 234.317 126.516C236.144 127.486 237.618 128.866 238.737 130.656C239.855 132.409 240.583 134.479 240.918 136.866L235.771 137.985C235.287 135.337 234.41 133.323 233.142 131.943C231.911 130.563 230.196 129.873 227.995 129.873C226.093 129.873 224.471 130.507 223.128 131.775C221.785 133.006 220.759 134.815 220.051 137.202C219.342 139.552 218.988 142.386 218.988 145.706C218.988 150.741 219.752 154.638 221.282 157.398C222.848 160.121 225.067 161.482 227.939 161.482C230.848 161.482 233.011 160.4 234.429 158.237C235.846 156.074 236.555 153.165 236.555 149.51L237.953 150.069H224.191V145.426H241.422V165.342H237.058V159.3H236.778C236.368 161.314 235.361 162.974 233.757 164.279C232.154 165.547 230.102 166.181 227.603 166.181ZM248.057 165.342V125.901H253.54L268.757 156.055H269.037V125.901H274.016V165.342H268.477L253.316 135.188H253.037V165.342H248.057ZM282.889 165.342V125.901H288.204V165.342H282.889ZM284.232 165.342V160.643H307.841V165.342H284.232ZM284.232 147.496V142.852H305.323V147.496H284.232ZM284.232 130.6V125.901H307.841V130.6H284.232ZM315.092 165.342V125.901H329.806C333.61 125.901 336.575 126.833 338.701 128.698C340.864 130.563 341.946 133.155 341.946 136.475C341.946 137.966 341.647 139.384 341.05 140.726C340.454 142.032 339.633 143.151 338.589 144.083C337.545 144.978 336.332 145.594 334.952 145.929V146.097C336.705 146.209 338.067 146.769 339.036 147.776C340.006 148.745 340.584 150.293 340.771 152.419L341.946 165.342H336.575L335.68 153.538C335.568 151.785 335.12 150.554 334.337 149.845C333.591 149.1 332.323 148.727 330.533 148.727H319.512V144.307H329.694C330.962 144.307 332.099 144.009 333.106 143.412C334.151 142.815 334.971 141.976 335.568 140.894C336.165 139.813 336.463 138.545 336.463 137.09C336.463 134.927 335.829 133.286 334.561 132.167C333.33 131.048 331.558 130.488 329.246 130.488H320.407V165.342H315.092Z" fill="black"/>
</svg>
