<svg width="335" height="120" viewBox="0 0 335 120" fill="none" xmlns="http://www.w3.org/2000/svg">
<rect width="334.458" height="119.837" fill="#E4FF97"/>
<path d="M74.177 80.4189V40.9776H79.4918V80.4189H74.177ZM53.5333 80.4189V40.9776H58.8481V80.4189H53.5333ZM57.9529 62.4046V57.5374H75.0721V62.4046H57.9529ZM88.3652 80.4189V40.9776H93.68V80.4189H88.3652ZM89.7079 80.4189V75.7196H113.317V80.4189H89.7079ZM89.7079 62.5725V57.929H110.799V62.5725H89.7079ZM89.7079 45.677V40.9776H113.317V45.677H89.7079ZM119.057 86.0135L143.058 37.3412H148.149L124.148 86.0135H119.057ZM164.519 80.4189V41.9847H169.778V80.4189H164.519ZM152.658 45.677V40.9776H181.638V45.677H152.658ZM208.358 80.4189V40.9776H213.673V80.4189H208.358ZM187.714 80.4189V40.9776H193.029V80.4189H187.714ZM192.134 62.4046V57.5374H209.253V62.4046H192.134ZM222.546 80.4189V40.9776H227.861V80.4189H222.546ZM223.889 80.4189V75.7196H247.498V80.4189H223.889ZM223.889 62.5725V57.929H244.98V62.5725H223.889ZM223.889 45.677V40.9776H247.498V45.677H223.889ZM266.217 66.9921L252.846 40.9776H259.168L267.672 60.1109H267.896L276.399 40.9776H282.721L269.406 66.9921H266.217ZM265.154 80.4189V62.4046H270.413V80.4189H265.154Z" fill="black"/>
</svg>
