<svg width="402" height="120" viewBox="0 0 402 120" fill="none" xmlns="http://www.w3.org/2000/svg">
<rect width="401.458" height="119.837" fill="#E4FF97"/>
<path d="M63.8831 80.4189V41.9847H69.142V80.4189H63.8831ZM52.0228 45.677V40.9776H81.0023V45.677H52.0228ZM107.722 80.4189V40.9776H113.037V80.4189H107.722ZM87.0785 80.4189V40.9776H92.3933V80.4189H87.0785ZM91.4981 62.4046V57.5374H108.617V62.4046H91.4981ZM121.91 80.4189V40.9776H127.225V80.4189H121.91ZM123.253 80.4189V75.7196H146.862V80.4189H123.253ZM123.253 62.5725V57.929H144.344V62.5725H123.253ZM123.253 45.677V40.9776H146.862V45.677H123.253ZM165.582 66.9921L152.211 40.9776H158.533L167.036 60.1109H167.26L175.764 40.9776H182.085L168.771 66.9921H165.582ZM164.519 80.4189V62.4046H169.778V80.4189H164.519ZM186.148 86.0135L210.148 37.3412H215.239L191.239 86.0135H186.148ZM231.609 80.4189V41.9847H236.868V80.4189H231.609ZM219.749 45.677V40.9776H248.728V45.677H219.749ZM275.448 80.4189V40.9776H280.763V80.4189H275.448ZM254.805 80.4189V40.9776H260.119V80.4189H254.805ZM259.224 62.4046V57.5374H276.343V62.4046H259.224ZM289.636 80.4189V40.9776H294.951V80.4189H289.636ZM290.979 80.4189V75.7196H314.588V80.4189H290.979ZM290.979 62.5725V57.929H312.07V62.5725H290.979ZM290.979 45.677V40.9776H314.588V45.677H290.979ZM321.056 80.4189V40.9776H327.769L334.706 65.7613H335.042L342.035 40.9776H348.749V80.4189H344.161V49.5372H343.825L337.112 72.8664H332.692L325.979 49.5372H325.643V80.4189H321.056Z" fill="black"/>
</svg>
