<svg width="369" height="120" viewBox="0 0 369 120" fill="none" xmlns="http://www.w3.org/2000/svg">
<rect width="368.458" height="119.837" rx="59.9185" fill="#24CB71"/>
<path d="M50.9039 80.4185L63.4356 40.9772H69.5895L82.0653 80.4185H76.6386L66.6804 47.0752H66.3447L56.3305 80.4185H50.9039ZM58.4005 70.0127V65.4252H74.6246V70.0127H58.4005ZM86.2393 80.4185V40.9772H92.9527L99.8899 65.7608H100.226L107.219 40.9772H113.932V80.4185H109.345V49.5368H109.009L102.296 72.8659H97.8759L91.1625 49.5368H90.8268V80.4185H86.2393ZM120.847 80.4185V40.9772H135.337C138.843 40.9772 141.622 41.8909 143.673 43.7185C145.762 45.546 146.806 48.0076 146.806 51.1032C146.806 53.3783 146.247 55.3364 145.128 56.9775C144.046 58.6185 142.368 59.6628 140.093 60.1104V60.2782C142.629 60.5766 144.55 61.5836 145.855 63.2993C147.16 64.9776 147.813 66.973 147.813 69.2854C147.813 71.5605 147.328 73.5372 146.358 75.2156C145.426 76.8939 144.083 78.1807 142.33 79.0758C140.577 79.9709 138.507 80.4185 136.12 80.4185H120.847ZM126.162 77.789L124.428 76.0547H135.393C137.631 76.0547 139.347 75.4766 140.54 74.3204C141.771 73.1642 142.386 71.4859 142.386 69.2854C142.386 67.1968 141.771 65.5744 140.54 64.4182C139.347 63.2247 137.631 62.6279 135.393 62.6279H125.267V58.3761H134.442C136.643 58.3761 138.358 57.7793 139.589 56.5858C140.82 55.3923 141.435 53.7326 141.435 51.6067C141.435 49.5927 140.82 48.0449 139.589 46.9633C138.396 45.8444 136.68 45.2849 134.442 45.2849H124.428L126.162 43.6066V77.789ZM164.519 79.2996V42.0961H169.778V79.2996H164.519ZM155.679 80.4185V75.7191H178.617V80.4185H155.679ZM155.679 45.6765V40.9772H178.617V45.6765H155.679ZM198.008 80.4185L185.7 40.9772H191.742L200.526 73.1456H200.861L209.645 40.9772H215.687L203.379 80.4185H198.008ZM222.546 80.4185V40.9772H227.861V80.4185H222.546ZM223.889 80.4185V75.7191H247.498V80.4185H223.889ZM223.889 62.572V57.9285H244.98V62.572H223.889ZM223.889 45.6765V40.9772H247.498V45.6765H223.889ZM254.749 80.4185V40.9772H269.462C273.266 40.9772 276.231 41.9096 278.357 43.7744C280.521 45.6393 281.602 48.2314 281.602 51.5508C281.602 53.0427 281.304 54.4599 280.707 55.8026C280.11 57.108 279.29 58.2269 278.246 59.1593C277.201 60.0544 275.989 60.6698 274.609 61.0055V61.1733C276.362 61.2852 277.723 61.8447 278.693 62.8517C279.663 63.8214 280.241 65.3692 280.427 67.4951L281.602 80.4185H276.231L275.336 68.614C275.224 66.8611 274.777 65.6303 273.994 64.9217C273.248 64.1757 271.98 63.8028 270.189 63.8028H259.168V59.3831H269.35C270.618 59.3831 271.756 59.0847 272.763 58.488C273.807 57.8912 274.628 57.0521 275.224 55.9704C275.821 54.8888 276.12 53.6208 276.12 52.1662C276.12 50.003 275.486 48.3619 274.217 47.243C272.987 46.1241 271.215 45.5647 268.903 45.5647H260.063V80.4185H254.749ZM298.7 80.4185V41.9842H303.958V80.4185H298.7ZM286.839 45.6765V40.9772H315.819V45.6765H286.839Z" fill="black"/>
</svg>
