<svg width="302" height="120" viewBox="0 0 302 120" fill="none" xmlns="http://www.w3.org/2000/svg">
<rect width="301.458" height="119.837" fill="#E4FF97"/>
<path d="M74.177 80.4185V40.9772H79.4918V80.4185H74.177ZM53.5333 80.4185V40.9772H58.8481V80.4185H53.5333ZM57.9529 62.4041V57.5369H75.0721V62.4041H57.9529ZM88.3652 80.4185V40.9772H93.68V80.4185H88.3652ZM89.7079 80.4185V75.7191H113.317V80.4185H89.7079ZM89.7079 62.572V57.9285H110.799V62.572H89.7079ZM89.7079 45.6765V40.9772H113.317V45.6765H89.7079ZM119.057 86.013L143.058 37.3407H148.149L124.148 86.013H119.057ZM174.813 80.4185V40.9772H180.127V80.4185H174.813ZM154.169 80.4185V40.9772H159.484V80.4185H154.169ZM158.589 62.4041V57.5369H175.708V62.4041H158.589ZM198.064 79.2996V42.0961H203.323V79.2996H198.064ZM189.225 80.4185V75.7191H212.162V80.4185H189.225ZM189.225 45.6765V40.9772H212.162V45.6765H189.225ZM220.42 80.4185V40.9772H227.134L234.071 65.7608H234.406L241.4 40.9772H248.113V80.4185H243.525V49.5368H243.19L236.476 72.8659H232.057L225.343 49.5368H225.008V80.4185H220.42Z" fill="black"/>
</svg>
