<svg width="504" height="120" viewBox="0 0 504 120" fill="none" xmlns="http://www.w3.org/2000/svg">
<rect width="503.458" height="119.837" fill="#E4FF97"/>
<path d="M50.9039 80.4185L63.4356 40.9772H69.5895L82.0653 80.4185H76.6386L66.6804 47.0752H66.3447L56.3305 80.4185H50.9039ZM58.4005 70.0127V65.4252H74.6246V70.0127H58.4005ZM87.0785 80.4185V40.9772H92.5611L107.778 71.1316H108.058V40.9772H113.037V80.4185H107.498L92.3373 50.264H92.0576V80.4185H87.0785ZM132.036 66.9916L118.666 40.9772H124.987L133.491 60.1104H133.715L142.218 40.9772H148.54L135.225 66.9916H132.036ZM130.974 80.4185V62.4041H136.232V80.4185H130.974ZM188.162 80.4185V40.9772H201.7C205.878 40.9772 209.16 42.0588 211.547 44.222C213.934 46.3479 215.127 49.257 215.127 52.9494C215.127 56.6418 213.934 59.5696 211.547 61.7328C209.16 63.8587 205.878 64.9217 201.7 64.9217H191.798V60.3342H201.588C204.162 60.3342 206.139 59.6815 207.519 58.3761C208.899 57.0334 209.589 55.2245 209.589 52.9494C209.589 50.6743 208.899 48.8841 207.519 47.5787C206.139 46.236 204.162 45.5647 201.588 45.5647H193.476V80.4185H188.162ZM221.203 80.4185V40.9772H235.917C239.721 40.9772 242.686 41.9096 244.812 43.7744C246.975 45.6393 248.057 48.2314 248.057 51.5508C248.057 53.0427 247.759 54.4599 247.162 55.8026C246.565 57.108 245.745 58.2269 244.7 59.1593C243.656 60.0544 242.444 60.6698 241.064 61.0055V61.1733C242.817 61.2852 244.178 61.8447 245.148 62.8517C246.118 63.8214 246.696 65.3692 246.882 67.4951L248.057 80.4185H242.686L241.791 68.614C241.679 66.8611 241.232 65.6303 240.448 64.9217C239.703 64.1757 238.434 63.8028 236.644 63.8028H225.623V59.3831H235.805C237.073 59.3831 238.211 59.0847 239.218 58.488C240.262 57.8912 241.083 57.0521 241.679 55.9704C242.276 54.8888 242.574 53.6208 242.574 52.1662C242.574 50.003 241.94 48.3619 240.672 47.243C239.441 46.1241 237.67 45.5647 235.357 45.5647H226.518V80.4185H221.203ZM267.784 81.2576C264.725 81.2576 262.115 80.3998 259.951 78.6842C257.788 76.9685 256.129 74.5815 254.972 71.5232C253.816 68.4276 253.238 64.8284 253.238 60.7258C253.238 56.6231 253.816 53.024 254.972 49.9284C256.129 46.8327 257.788 44.4271 259.951 42.7115C262.115 40.9958 264.725 40.138 267.784 40.138C270.842 40.138 273.453 40.9958 275.616 42.7115C277.779 44.4271 279.439 46.8327 280.595 49.9284C281.751 53.024 282.33 56.6231 282.33 60.7258C282.33 64.8284 281.751 68.4276 280.595 71.5232C279.439 74.5815 277.779 76.9685 275.616 78.6842C273.453 80.3998 270.842 81.2576 267.784 81.2576ZM267.784 76.4464C269.761 76.4464 271.402 75.8123 272.707 74.5442C274.05 73.2761 275.057 71.4672 275.728 69.1175C276.437 66.7306 276.791 63.9333 276.791 60.7258C276.791 57.5183 276.437 54.7397 275.728 52.39C275.057 50.003 274.05 48.1754 272.707 46.9073C271.402 45.602 269.761 44.9493 267.784 44.9493C265.844 44.9493 264.203 45.602 262.861 46.9073C261.518 48.1754 260.492 50.003 259.784 52.39C259.112 54.7397 258.777 57.5183 258.777 60.7258C258.777 63.9333 259.112 66.7306 259.784 69.1175C260.492 71.4672 261.518 73.2761 262.861 74.5442C264.203 75.8123 265.844 76.4464 267.784 76.4464ZM288.35 80.4185V40.9772H293.832L309.049 71.1316H309.329V40.9772H314.308V80.4185H308.77L293.609 50.264H293.329V80.4185H288.35ZM334.874 81.2576C331.816 81.2576 329.205 80.3998 327.042 78.6842C324.879 76.9685 323.219 74.5815 322.063 71.5232C320.907 68.4276 320.328 64.8284 320.328 60.7258C320.328 56.6231 320.907 53.024 322.063 49.9284C323.219 46.8327 324.879 44.4271 327.042 42.7115C329.205 40.9958 331.816 40.138 334.874 40.138C337.933 40.138 340.543 40.9958 342.707 42.7115C344.87 44.4271 346.529 46.8327 347.686 49.9284C348.842 53.024 349.42 56.6231 349.42 60.7258C349.42 64.8284 348.842 68.4276 347.686 71.5232C346.529 74.5815 344.87 76.9685 342.707 78.6842C340.543 80.3998 337.933 81.2576 334.874 81.2576ZM334.874 76.4464C336.851 76.4464 338.492 75.8123 339.797 74.5442C341.14 73.2761 342.147 71.4672 342.818 69.1175C343.527 66.7306 343.881 63.9333 343.881 60.7258C343.881 57.5183 343.527 54.7397 342.818 52.39C342.147 50.003 341.14 48.1754 339.797 46.9073C338.492 45.602 336.851 44.9493 334.874 44.9493C332.935 44.9493 331.294 45.602 329.951 46.9073C328.608 48.1754 327.583 50.003 326.874 52.39C326.203 54.7397 325.867 57.5183 325.867 60.7258C325.867 63.9333 326.203 66.7306 326.874 69.1175C327.583 71.4672 328.608 73.2761 329.951 74.5442C331.294 75.8123 332.935 76.4464 334.874 76.4464ZM368.419 81.2576C364.205 81.2576 360.941 80.0641 358.629 77.6771C356.354 75.2529 355.216 71.9894 355.216 67.8868V40.9772H360.643V67.663C360.643 70.2737 361.314 72.3437 362.657 73.8729C364 75.402 365.921 76.1666 368.419 76.1666C370.918 76.1666 372.839 75.402 374.182 73.8729C375.524 72.3437 376.196 70.2737 376.196 67.663V40.9772H381.622V67.8868C381.622 71.9894 380.466 75.2529 378.154 77.6771C375.879 80.0641 372.634 81.2576 368.419 81.2576ZM388.985 80.4185V40.9772H394.468L409.685 71.1316H409.965V40.9772H414.944V80.4185H409.405L394.244 50.264H393.964V80.4185H388.985ZM436.461 81.2576C431.985 81.2576 428.479 80.0828 425.943 77.7331C423.444 75.3834 421.934 72.0826 421.412 67.8308L426.67 67.1595C427.043 70.2551 428.032 72.6048 429.636 74.2086C431.239 75.8123 433.533 76.6142 436.517 76.6142C438.904 76.6142 440.75 75.9801 442.055 74.7121C443.398 73.4067 444.069 71.6351 444.069 69.3973C444.069 67.7562 443.641 66.5068 442.783 65.649C441.962 64.7538 440.526 64.0638 438.475 63.579L431.706 61.9006C425.626 60.4461 422.587 57.0334 422.587 51.6627C422.587 49.3503 423.127 47.3363 424.209 45.6206C425.291 43.8677 426.801 42.525 428.74 41.5926C430.68 40.6228 432.936 40.138 435.51 40.138C439.501 40.138 442.689 41.2382 445.076 43.4387C447.463 45.6392 448.862 48.6789 449.272 52.5578L444.013 53.1732C443.641 50.4132 442.745 48.3246 441.328 46.9073C439.911 45.4901 437.971 44.7814 435.51 44.7814C433.272 44.7814 431.5 45.3595 430.195 46.5157C428.89 47.6346 428.237 49.2197 428.237 51.2711C428.237 52.8748 428.703 54.1429 429.636 55.0753C430.568 56.0077 432.079 56.735 434.167 57.2572L440.992 58.8796C443.939 59.5882 446.102 60.7631 447.482 62.4041C448.899 64.0452 449.608 66.227 449.608 68.9497C449.608 71.4113 449.067 73.5745 447.986 75.4393C446.904 77.3042 445.375 78.7401 443.398 79.7471C441.459 80.7541 439.146 81.2576 436.461 81.2576Z" fill="black"/>
</svg>
