<svg width="503" height="120" viewBox="0 0 503 120" fill="none" xmlns="http://www.w3.org/2000/svg">
<rect width="502.458" height="119.837" fill="#C4BAFF"/>
<path d="M28.0442 86.0135V37.3412L33.1352 38.9636V84.1673L28.0442 86.0135ZM28.0442 86.0135L29.1631 81.8176H41.1353V86.0135H28.0442ZM29.1631 41.5371L28.0442 37.3412H41.1353V41.5371H29.1631ZM67.4636 81.2581C64.2561 81.2581 61.4961 80.4562 59.1837 78.8525C56.8713 77.2114 55.0811 74.8617 53.813 71.8034C52.5822 68.7451 51.9668 65.0527 51.9668 60.7263C51.9668 56.3998 52.5822 52.7075 53.813 49.6491C55.0811 46.5535 56.8713 44.2038 59.1837 42.6001C61.4961 40.959 64.2561 40.1385 67.4636 40.1385C71.4544 40.1385 74.6432 41.4252 77.0302 43.9987C79.4172 46.5722 80.8158 50.2645 81.2261 55.0758L76.0791 55.8031C75.7435 52.1107 74.867 49.3881 73.4497 47.6351C72.0325 45.8449 70.0184 44.9498 67.4077 44.9498C64.312 44.9498 61.8877 46.3111 60.1348 49.0337C58.3818 51.7564 57.5054 55.6539 57.5054 60.7263C57.5054 65.7613 58.3818 69.6402 60.1348 72.3629C61.8877 75.0855 64.312 76.4468 67.4077 76.4468C70.0184 76.4468 72.0325 75.5704 73.4497 73.8174C74.9043 72.0645 75.7994 69.3418 76.1351 65.6494L81.2261 66.4886C80.7785 71.2626 79.3613 74.9177 76.9743 77.4539C74.6246 79.99 71.4544 81.2581 67.4636 81.2581ZM84.4491 80.4189L96.9808 40.9776H103.135L115.61 80.4189H110.184L100.226 47.0757H99.8899L89.8757 80.4189H84.4491ZM91.9457 70.0132V65.4257H108.17V70.0132H91.9457ZM119.785 80.4189V40.9776H126.498L133.435 65.7613H133.771L140.764 40.9776H147.477V80.4189H142.89V49.5372H142.554L135.841 72.8664H131.421L124.708 49.5372H124.372V80.4189H119.785ZM154.616 80.4189V40.9776H168.155C172.332 40.9776 175.615 42.0593 178.002 44.2225C180.388 46.3484 181.582 49.2575 181.582 52.9499C181.582 56.6423 180.388 59.5701 178.002 61.7333C175.615 63.8592 172.332 64.9222 168.155 64.9222H158.253V60.3347H168.043C170.617 60.3347 172.593 59.682 173.973 58.3766C175.353 57.0339 176.043 55.225 176.043 52.9499C176.043 50.6748 175.353 48.8846 173.973 47.5792C172.593 46.2365 170.617 45.5651 168.043 45.5651H159.931V80.4189H154.616ZM200.693 81.2581C196.479 81.2581 193.215 80.0646 190.903 77.6776C188.628 75.2533 187.49 71.9899 187.49 67.8872V40.9776H192.917V67.6635C192.917 70.2742 193.588 72.3442 194.931 73.8734C196.274 75.4025 198.194 76.1671 200.693 76.1671C203.192 76.1671 205.113 75.4025 206.456 73.8734C207.798 72.3442 208.47 70.2742 208.47 67.6635V40.9776H213.896V67.8872C213.896 71.9899 212.74 75.2533 210.428 77.6776C208.153 80.0646 204.908 81.2581 200.693 81.2581ZM235.19 81.2581C230.714 81.2581 227.208 80.0833 224.672 77.7336C222.173 75.3839 220.663 72.0831 220.14 67.8313L225.399 67.16C225.772 70.2556 226.761 72.6053 228.364 74.209C229.968 75.8128 232.262 76.6147 235.246 76.6147C237.633 76.6147 239.479 75.9806 240.784 74.7125C242.127 73.4072 242.798 71.6356 242.798 69.3978C242.798 67.7567 242.369 66.5073 241.511 65.6494C240.691 64.7543 239.255 64.0643 237.204 63.5795L230.434 61.9011C224.355 60.4465 221.315 57.0339 221.315 51.6632C221.315 49.3508 221.856 47.3367 222.938 45.6211C224.019 43.8681 225.53 42.5255 227.469 41.593C229.409 40.6233 231.665 40.1385 234.239 40.1385C238.229 40.1385 241.418 41.2387 243.805 43.4392C246.192 45.6397 247.591 48.6794 248.001 52.5583L242.742 53.1737C242.369 50.4137 241.474 48.3251 240.057 46.9078C238.64 45.4906 236.7 44.7819 234.239 44.7819C232.001 44.7819 230.229 45.36 228.924 46.5162C227.618 47.6351 226.966 49.2202 226.966 51.2715C226.966 52.8753 227.432 54.1434 228.364 55.0758C229.297 56.0082 230.807 56.7355 232.896 57.2577L239.721 58.8801C242.668 59.5887 244.831 60.7636 246.211 62.4046C247.628 64.0457 248.337 66.2275 248.337 68.9502C248.337 71.4118 247.796 73.575 246.714 75.4398C245.633 77.3047 244.104 78.7406 242.127 79.7476C240.187 80.7546 237.875 81.2581 235.19 81.2581ZM288.35 80.4189V40.9776H293.832L309.049 71.1321H309.329V40.9776H314.308V80.4189H308.77L293.609 50.2645H293.329V80.4189H288.35ZM319.266 80.4189L331.797 40.9776H337.951L350.427 80.4189H345L335.042 47.0757H334.706L324.692 80.4189H319.266ZM326.762 70.0132V65.4257H342.986V70.0132H326.762ZM354.601 80.4189V40.9776H361.314L368.252 65.7613H368.587L375.58 40.9776H382.294V80.4189H377.706V49.5372H377.371L370.657 72.8664H366.238L359.524 49.5372H359.188V80.4189H354.601ZM390.272 80.4189V40.9776H395.587V80.4189H390.272ZM391.615 80.4189V75.7196H415.224V80.4189H391.615ZM391.615 62.5725V57.929H412.706V62.5725H391.615ZM391.615 45.677V40.9776H415.224V45.677H391.615ZM440.433 86.0135L435.342 84.1673V38.9636L440.433 37.3412V86.0135ZM440.433 86.0135H427.342V81.8176H439.314L440.433 86.0135ZM439.314 41.5371H427.342V37.3412H440.433L439.314 41.5371Z" fill="black"/>
</svg>
