<svg width="422" height="293" viewBox="0 0 422 293" fill="none" xmlns="http://www.w3.org/2000/svg">
<path d="M146.13 35.9854L185.877 0H235.817L275.564 35.9854L315.312 0H362.17L421.693 53.8906V238.368L362.17 292.259H315.312L275.564 256.273L235.817 292.259H185.877L146.13 256.273L106.384 292.259H59.5244L0 238.368V53.8906L59.5244 0H106.384L146.13 35.9854Z" fill="#4D49FC"/>
<path d="M94.2618 166.181C91.0543 166.181 88.2943 165.379 85.9819 163.775C83.6695 162.134 81.8793 159.785 80.6112 156.726C79.3804 153.668 78.765 149.976 78.765 145.649C78.765 141.323 79.3804 137.63 80.6112 134.572C81.8793 131.476 83.6695 129.127 85.9819 127.523C88.2943 125.882 91.0543 125.061 94.2618 125.061C98.2525 125.061 101.441 126.348 103.828 128.922C106.215 131.495 107.614 135.187 108.024 139.999L102.877 140.726C102.542 137.034 101.665 134.311 100.248 132.558C98.8306 130.768 96.8166 129.873 94.2058 129.873C91.1102 129.873 88.6859 131.234 86.933 133.957C85.18 136.679 84.3035 140.577 84.3035 145.649C84.3035 150.684 85.18 154.563 86.933 157.286C88.6859 160.008 91.1102 161.37 94.2058 161.37C96.8166 161.37 98.8306 160.493 100.248 158.74C101.702 156.987 102.598 154.265 102.933 150.572L108.024 151.411C107.577 156.185 106.159 159.841 103.772 162.377C101.423 164.913 98.2525 166.181 94.2618 166.181ZM113.821 165.342V125.9H128.534C132.339 125.9 135.304 126.833 137.43 128.698C139.593 130.563 140.674 133.155 140.674 136.474C140.674 137.966 140.376 139.383 139.779 140.726C139.182 142.031 138.362 143.15 137.318 144.083C136.273 144.978 135.061 145.593 133.681 145.929V146.097C135.434 146.209 136.795 146.768 137.765 147.775C138.735 148.745 139.313 150.293 139.5 152.418L140.674 165.342H135.304L134.409 153.537C134.297 151.784 133.849 150.554 133.066 149.845C132.32 149.099 131.052 148.726 129.262 148.726H118.24V144.306H128.422C129.69 144.306 130.828 144.008 131.835 143.411C132.879 142.815 133.7 141.975 134.297 140.894C134.893 139.812 135.192 138.544 135.192 137.09C135.192 134.926 134.558 133.285 133.29 132.166C132.059 131.047 130.287 130.488 127.975 130.488H119.135V165.342H113.821ZM148.709 165.342V125.9H154.023V165.342H148.709ZM150.051 165.342V160.642H173.66V165.342H150.051ZM150.051 147.495V142.852H171.143V147.495H150.051ZM150.051 130.6V125.9H173.66V130.6H150.051ZM178.338 165.342L190.869 125.9H197.023L209.499 165.342H204.072L194.114 131.999H193.778L183.764 165.342H178.338ZM185.834 154.936V150.349H202.058V154.936H185.834ZM224.862 165.342V126.908H230.121V165.342H224.862ZM213.002 130.6V125.9H241.981V130.6H213.002ZM258.407 164.223V127.019H263.666V164.223H258.407ZM249.568 165.342V160.642H272.505V165.342H249.568ZM249.568 130.6V125.9H272.505V130.6H249.568ZM291.897 165.342L279.589 125.9H285.631L294.414 158.069H294.75L303.533 125.9H309.575L297.267 165.342H291.897ZM316.435 165.342V125.9H321.749V165.342H316.435ZM317.777 165.342V160.642H341.386V165.342H317.777ZM317.777 147.495V142.852H338.869V147.495H317.777ZM317.777 130.6V125.9H341.386V130.6H317.777Z" fill="white"/>
</svg>
