<svg width="397" height="287" viewBox="0 0 397 287" fill="none" xmlns="http://www.w3.org/2000/svg">
<path fill-rule="evenodd" clip-rule="evenodd" d="M377.876 178.929C402.405 203.458 402.405 243.226 377.876 267.755C353.348 292.282 313.58 292.282 289.052 267.755L259.391 238.092C252.82 265.839 227.887 286.484 198.131 286.484C168.378 286.484 143.448 265.843 136.875 238.099L107.22 267.755C82.6918 292.282 42.9239 292.283 18.3958 267.755C-6.13224 243.226 -6.13206 203.459 18.3958 178.93L54.2513 143.075L18.3958 107.22C-6.13224 82.6922 -6.13211 42.9243 18.3958 18.3961C42.924 -6.13208 82.6918 -6.13204 107.22 18.3961L137.444 48.6188C144.79 22.0011 169.177 2.45379 198.131 2.45375C227.088 2.45376 251.479 22.0046 258.823 48.6266L289.052 18.3971C313.58 -6.13098 353.348 -6.13104 377.876 18.3971C402.404 42.9253 402.404 82.6931 377.876 107.221L342.023 143.075L377.876 178.929Z" fill="#4D49FC"/>
<path d="M169.015 128.677V95.9489H168.679L155.476 115.642V115.977H179.701V120.621H150.609V115.977L168.567 89.2355H174.274V128.677H169.015ZM195.511 128.677V90.2425H200.77V128.677H195.511ZM183.651 93.9348V89.2355H212.63V93.9348H183.651ZM239.35 128.677V89.2355L244.665 89.2355V128.677H239.35ZM218.706 128.677V89.2355H224.021V128.677H218.706ZM223.126 110.662V105.795H240.245V110.662H223.126ZM146.256 182.25L132.885 156.235H139.207L147.711 175.369H147.935L156.438 156.235H162.76L149.445 182.25H146.256ZM145.193 195.677V177.662H150.452V195.677H145.193ZM169.675 195.677V156.235H174.99V195.677H169.675ZM171.018 195.677V190.977H194.627V195.677H171.018ZM171.018 177.83V173.187H192.109V177.83H171.018ZM171.018 160.935V156.235H194.627V160.935H171.018ZM199.304 195.677L211.836 156.235H217.99L230.466 195.677H225.039L215.081 162.333H214.745L204.731 195.677H199.304ZM206.801 185.271V180.683H223.025V185.271H206.801ZM235.423 195.677V156.235H250.137C253.941 156.235 256.906 157.168 259.032 159.033C261.195 160.898 262.277 163.49 262.277 166.809C262.277 168.301 261.978 169.718 261.382 171.061C260.785 172.366 259.964 173.485 258.92 174.418C257.876 175.313 256.664 175.928 255.284 176.264V176.432C257.037 176.544 258.398 177.103 259.368 178.11C260.337 179.08 260.915 180.628 261.102 182.753L262.277 195.677H256.906L256.011 183.872C255.899 182.119 255.451 180.889 254.668 180.18C253.922 179.434 252.654 179.061 250.864 179.061H239.843V174.641H250.025C251.293 174.641 252.43 174.343 253.437 173.746C254.482 173.15 255.302 172.31 255.899 171.229C256.496 170.147 256.794 168.879 256.794 167.424C256.794 165.261 256.16 163.62 254.892 162.501C253.661 161.382 251.89 160.823 249.577 160.823H240.738V195.677H235.423Z" fill="white"/>
</svg>
