<svg width="397" height="287" viewBox="0 0 397 287" fill="none" xmlns="http://www.w3.org/2000/svg">
<path fill-rule="evenodd" clip-rule="evenodd" d="M377.88 178.93C402.408 203.458 402.408 243.226 377.88 267.754C353.352 292.282 313.584 292.282 289.056 267.754L259.395 238.092C252.825 265.839 227.892 286.485 198.136 286.485C168.382 286.485 143.451 265.842 136.879 238.097L107.221 267.755C82.6927 292.283 42.9239 292.283 18.3958 267.755C-6.13227 243.227 -6.13212 203.458 18.3958 178.93L54.2513 143.075L18.3958 107.221C-6.13214 82.6928 -6.13181 42.9249 18.3958 18.3966C42.924 -6.13159 82.6928 -6.13254 107.221 18.3957L137.448 48.6212C144.793 22.0023 169.181 2.45327 198.136 2.45327C227.093 2.45328 251.482 22.0046 258.826 48.6261L289.056 18.3976C313.584 -6.13061 353.352 -6.13059 377.88 18.3976C402.408 42.9259 402.408 82.6936 377.88 107.222L342.027 143.075L377.88 178.93Z" fill="#C4BAFF"/>
<path d="M162.586 127.557V99.2491L164.488 101.263H152.292V96.7316H158.838C160.031 96.7316 160.964 96.4519 161.635 95.8924C162.344 95.2957 162.698 94.326 162.698 92.9833V89.235H167.901V127.557H162.586ZM152.292 128.676V123.977H177.188V128.676H152.292ZM199.097 129.515C194.621 129.515 191.115 128.341 188.579 125.991C186.08 123.641 184.569 120.34 184.047 116.089L189.306 115.417C189.679 118.513 190.667 120.863 192.271 122.466C193.875 124.07 196.169 124.872 199.152 124.872C201.539 124.872 203.386 124.238 204.691 122.97C206.034 121.664 206.705 119.893 206.705 117.655C206.705 116.014 206.276 114.765 205.418 113.907C204.598 113.012 203.162 112.322 201.111 111.837L194.341 110.158C188.262 108.704 185.222 105.291 185.222 99.9205C185.222 97.6081 185.763 95.5941 186.845 93.8784C187.926 92.1255 189.437 90.7828 191.376 89.8504C193.316 88.8807 195.572 88.3958 198.145 88.3958C202.136 88.3958 205.325 89.496 207.712 91.6966C210.099 93.8971 211.498 96.9367 211.908 100.816L206.649 101.431C206.276 98.671 205.381 96.5824 203.964 95.1652C202.546 93.7479 200.607 93.0392 198.145 93.0392C195.908 93.0392 194.136 93.6173 192.831 94.7735C191.525 95.8924 190.873 97.4775 190.873 99.5289C190.873 101.133 191.339 102.401 192.271 103.333C193.204 104.266 194.714 104.993 196.803 105.515L203.628 107.137C206.575 107.846 208.738 109.021 210.118 110.662C211.535 112.303 212.244 114.485 212.244 117.208C212.244 119.669 211.703 121.832 210.621 123.697C209.54 125.562 208.01 126.998 206.034 128.005C204.094 129.012 201.782 129.515 199.097 129.515ZM229.061 128.676V90.242H234.32V128.676H229.061ZM217.201 93.9344V89.235L246.18 89.235V93.9344H217.201ZM146.261 182.249L132.89 156.235H139.212L147.716 175.368H147.94L156.443 156.235H162.765L149.45 182.249H146.261ZM145.198 195.676V177.662H150.457V195.676H145.198ZM169.68 195.676V156.235H174.995V195.676H169.68ZM171.023 195.676V190.977H194.632V195.676H171.023ZM171.023 177.83V173.186H192.114V177.83H171.023ZM171.023 160.934V156.235H194.632V160.934H171.023ZM199.309 195.676L211.841 156.235H217.995L230.471 195.676H225.044L215.086 162.333H214.75L204.736 195.676H199.309ZM206.806 185.27V180.683H223.03V185.27H206.806ZM235.428 195.676V156.235H250.142C253.946 156.235 256.911 157.167 259.037 159.032C261.2 160.897 262.282 163.489 262.282 166.809C262.282 168.3 261.983 169.718 261.387 171.06C260.79 172.366 259.969 173.485 258.925 174.417C257.881 175.312 256.669 175.928 255.289 176.263V176.431C257.041 176.543 258.403 177.102 259.373 178.11C260.342 179.079 260.92 180.627 261.107 182.753L262.282 195.676H256.911L256.016 183.872C255.904 182.119 255.456 180.888 254.673 180.179C253.927 179.434 252.659 179.061 250.869 179.061H239.848V174.641H250.03C251.298 174.641 252.435 174.343 253.442 173.746C254.487 173.149 255.307 172.31 255.904 171.228C256.501 170.147 256.799 168.879 256.799 167.424C256.799 165.261 256.165 163.62 254.897 162.501C253.666 161.382 251.895 160.822 249.582 160.822H240.743V195.676H235.428Z" fill="black"/>
</svg>
