<svg width="422" height="293" viewBox="0 0 422 293" fill="none" xmlns="http://www.w3.org/2000/svg">
<path d="M146.13 35.9854L185.877 0H235.817L275.564 35.9854L315.312 0H362.17L421.693 53.8906V238.368L362.17 292.259H315.312L275.564 256.273L235.817 292.259H185.877L146.13 256.273L106.384 292.259H59.5244L0 238.368V53.8906L59.5244 0H106.384L146.13 35.9854Z" fill="#C4BAFF"/>
<path d="M66.93 165.342V125.9H72.2448V165.342H66.93ZM46.2862 165.342V125.9H51.601V165.342H46.2862ZM50.7059 147.327V142.46H67.8251V147.327H50.7059ZM81.1182 165.342V125.9H86.433V165.342H81.1182ZM82.4609 165.342V160.642H106.07V165.342H82.4609ZM82.4609 147.495V142.852H103.552V147.495H82.4609ZM82.4609 130.6V125.9H106.07V130.6H82.4609ZM113.321 165.342V125.9H128.034C131.839 125.9 134.804 126.833 136.93 128.698C139.093 130.563 140.174 133.155 140.174 136.474C140.174 137.966 139.876 139.383 139.279 140.726C138.682 142.031 137.862 143.15 136.818 144.083C135.773 144.978 134.561 145.593 133.181 145.929V146.097C134.934 146.209 136.295 146.768 137.265 147.775C138.235 148.745 138.813 150.293 139 152.418L140.174 165.342H134.804L133.909 153.537C133.797 151.784 133.349 150.554 132.566 149.845C131.82 149.099 130.552 148.726 128.762 148.726H117.74V144.306H127.922C129.19 144.306 130.328 144.008 131.335 143.411C132.379 142.815 133.2 141.975 133.797 140.894C134.393 139.812 134.692 138.544 134.692 137.09C134.692 134.926 134.058 133.285 132.79 132.166C131.559 131.047 129.787 130.488 127.475 130.488H118.635V165.342H113.321ZM148.209 165.342V125.9H153.523V165.342H148.209ZM149.551 165.342V160.642H173.16V165.342H149.551ZM149.551 147.495V142.852H170.643V147.495H149.551ZM149.551 130.6V125.9H173.16V130.6H149.551ZM231.411 165.342V132.614H231.076L217.872 152.307V152.642H242.097V157.286H213.005V152.642L230.964 125.9H236.67V165.342H231.411ZM283.173 165.342V125.9H288.487V165.342H283.173ZM284.236 148.614V143.971H305.495V148.614H284.236ZM284.236 130.6V125.9H307.509V130.6H284.236ZM327.627 166.181C323.413 166.181 320.149 164.987 317.837 162.6C315.562 160.176 314.424 156.913 314.424 152.81V125.9H319.851V152.586C319.851 155.197 320.522 157.267 321.865 158.796C323.207 160.325 325.128 161.09 327.627 161.09C330.126 161.09 332.047 160.325 333.39 158.796C334.732 157.267 335.404 155.197 335.404 152.586V125.9H340.83V152.81C340.83 156.913 339.674 160.176 337.362 162.6C335.087 164.987 331.842 166.181 327.627 166.181ZM348.193 165.342V125.9H353.676L368.893 156.055H369.173V125.9H374.152V165.342H368.613L353.452 135.187H353.172V165.342H348.193Z" fill="black"/>
</svg>
