<svg width="397" height="287" viewBox="0 0 397 287" fill="none" xmlns="http://www.w3.org/2000/svg">
<path fill-rule="evenodd" clip-rule="evenodd" d="M377.878 178.93C402.406 203.458 402.406 243.226 377.878 267.754C353.35 292.282 313.582 292.282 289.054 267.754L259.392 238.091C252.822 265.839 227.889 286.484 198.133 286.484C168.38 286.484 143.449 265.843 136.876 238.099L107.22 267.755C82.6918 292.283 42.9239 292.283 18.3958 267.755C-6.1323 243.227 -6.13203 203.459 18.3958 178.931L54.2513 143.075L18.3958 107.221C-6.1323 82.6927 -6.13208 42.9249 18.3958 18.3966C42.924 -6.13159 82.6918 -6.13158 107.22 18.3967L137.445 48.6203C144.791 22.0018 169.179 2.45329 198.133 2.45329C227.09 2.4533 251.48 22.0051 258.824 48.6271L289.054 18.3967C313.582 -6.13128 353.35 -6.13118 377.878 18.3967C402.406 42.9249 402.406 82.6936 377.878 107.222L342.025 143.075L377.878 178.93Z" fill="#FF01E5"/>
<path d="M151.45 128.677V124.928C151.45 122.019 152.14 119.52 153.52 117.432C154.9 115.306 156.989 113.404 159.786 111.725L165.381 108.481C167.395 107.25 168.886 105.944 169.856 104.564C170.826 103.184 171.311 101.506 171.311 99.5294C171.311 97.5153 170.695 95.9489 169.465 94.83C168.271 93.6738 166.611 93.0957 164.485 93.0957C162.098 93.0957 160.196 93.823 158.779 95.2775C157.399 96.6948 156.578 98.8021 156.317 101.599L151.059 101.096C151.394 97.1051 152.737 93.9908 155.087 91.753C157.474 89.5152 160.644 88.3963 164.597 88.3963C168.327 88.3963 171.292 89.4033 173.493 91.4173C175.693 93.394 176.793 96.1167 176.793 99.5853C176.793 102.345 176.122 104.714 174.779 106.69C173.474 108.63 171.292 110.513 168.234 112.341L162.527 115.697C161.222 116.481 160.14 117.264 159.283 118.047C158.462 118.83 157.847 119.744 157.436 120.788C157.026 121.796 156.821 123.064 156.821 124.593L154.975 123.977H178.136V128.677H151.45ZM185.163 128.677V89.2355H190.646L205.863 119.39H206.143V89.2355H211.122V128.677H205.583L190.422 98.5223H190.142V128.677H185.163ZM218.708 128.677V89.2355H229.17C232.751 89.2355 235.772 90.0933 238.233 91.8089C240.695 93.5246 242.56 95.8743 243.828 98.858C245.096 101.804 245.73 105.18 245.73 108.984C245.73 112.788 245.096 116.182 243.828 119.166C242.56 122.113 240.695 124.444 238.233 126.159C235.772 127.838 232.751 128.677 229.17 128.677H218.708ZM224.023 125.824L222.401 124.201H229.002C232.471 124.201 235.194 122.933 237.17 120.397C239.147 117.861 240.135 114.056 240.135 108.984C240.135 103.912 239.147 100.107 237.17 97.5713C235.194 94.9978 232.471 93.7111 229.002 93.7111H222.401L224.023 92.0887V125.824ZM146.258 182.25L132.887 156.235H139.209L147.713 175.369H147.937L156.44 156.235H162.762L149.447 182.25H146.258ZM145.195 195.677V177.662H150.454V195.677H145.195ZM169.677 195.677V156.235H174.992V195.677H169.677ZM171.02 195.677V190.977H194.629V195.677H171.02ZM171.02 177.83V173.187H192.111V177.83H171.02ZM171.02 160.935V156.235H194.629V160.935H171.02ZM199.306 195.677L211.838 156.235H217.992L230.468 195.677H225.041L215.083 162.333H214.747L204.733 195.677H199.306ZM206.803 185.271V180.683H223.027V185.271H206.803ZM235.425 195.677V156.235H250.139C253.943 156.235 256.908 157.168 259.034 159.033C261.197 160.898 262.279 163.49 262.279 166.809C262.279 168.301 261.98 169.718 261.384 171.061C260.787 172.366 259.966 173.485 258.922 174.418C257.878 175.313 256.666 175.928 255.286 176.264V176.432C257.039 176.544 258.4 177.103 259.37 178.11C260.339 179.08 260.917 180.628 261.104 182.753L262.279 195.677H256.908L256.013 183.872C255.901 182.119 255.453 180.889 254.67 180.18C253.924 179.434 252.656 179.061 250.866 179.061H239.845V174.641H250.027C251.295 174.641 252.432 174.343 253.439 173.746C254.484 173.15 255.304 172.31 255.901 171.229C256.498 170.147 256.796 168.879 256.796 167.424C256.796 165.261 256.162 163.62 254.894 162.501C253.663 161.382 251.892 160.823 249.579 160.823H240.74V195.677H235.425Z" fill="black"/>
</svg>
